<svg width="400" height="400" viewBox="0 0 400 400" xmlns="http://www.w3.org/2000/svg">
<defs>
    <filter id="shadow" x="-20%" y="-20%" width="140%" height="140%">
        <feDropShadow dx="2" dy="4" stdDeviation="3" flood-opacity="0.3"/>
    </filter>
    <filter id="glow" x="-50%" y="-50%" width="200%" height="200%">
        <feGaussianBlur stdDeviation="8" result="blur"/>
        <feMerge><feMergeNode in="blur"/><feMergeNode in="SourceGraphic"/></feMerge>
    </filter>
    <linearGradient id="rainbow-body" x1="0%" y1="0%" x2="100%" y2="100%">
        <stop offset="0%" stop-color="#FF6B6B"/><stop offset="25%" stop-color="#FFE66D"/>
        <stop offset="50%" stop-color="#4ECDC4"/><stop offset="75%" stop-color="#45B7D1"/>
        <stop offset="100%" stop-color="#DDA0DD"/>
    </linearGradient>
    <radialGradient id="galaxy-body" cx="30%" cy="30%">
        <stop offset="0%" stop-color="#E6E6FA"/><stop offset="50%" stop-color="#9370DB"/>
        <stop offset="100%" stop-color="#1A0033"/>
    </radialGradient>
    <linearGradient id="holo-body" x1="0%" y1="0%" x2="100%" y2="100%">
        <stop offset="0%" stop-color="#FF00FF"/><stop offset="50%" stop-color="#00FFFF"/>
        <stop offset="100%" stop-color="#FFFF00"/>
    </linearGradient>
    <linearGradient id="sky-gradient" x1="0%" y1="0%" x2="0%" y2="100%">
        <stop offset="0%" stop-color="#87CEEB"/><stop offset="100%" stop-color="#E0F4FF"/>
    </linearGradient>
    <linearGradient id="grass-gradient" x1="0%" y1="0%" x2="0%" y2="100%">
        <stop offset="0%" stop-color="#90EE90"/><stop offset="100%" stop-color="#228B22"/>
    </linearGradient>
    <linearGradient id="sunset-gradient" x1="0%" y1="0%" x2="0%" y2="100%">
        <stop offset="0%" stop-color="#FF6B6B"/><stop offset="50%" stop-color="#FFE66D"/>
        <stop offset="100%" stop-color="#4ECDC4"/>
    </linearGradient>
    <linearGradient id="aurora-gradient" x1="0%" y1="0%" x2="100%" y2="100%">
        <stop offset="0%" stop-color="#0D1B2A"/><stop offset="30%" stop-color="#00FF7F"/>
        <stop offset="70%" stop-color="#FF00FF"/><stop offset="100%" stop-color="#0D1B2A"/>
    </linearGradient>
    <radialGradient id="multiverse-gradient" cx="50%" cy="50%">
        <stop offset="0%" stop-color="#FFD700"/><stop offset="40%" stop-color="#FF00FF"/>
        <stop offset="70%" stop-color="#00FFFF"/><stop offset="100%" stop-color="#000"/>
    </radialGradient>
    <linearGradient id="rift-gradient" x1="0%" y1="0%" x2="100%" y2="100%">
        <stop offset="0%" stop-color="#000"/><stop offset="30%" stop-color="#9400D3"/>
        <stop offset="50%" stop-color="#00FFFF"/><stop offset="70%" stop-color="#9400D3"/>
        <stop offset="100%" stop-color="#000"/>
    </linearGradient>
    <linearGradient id="heaven-gradient" x1="0%" y1="0%" x2="0%" y2="100%">
        <stop offset="0%" stop-color="#FFF"/><stop offset="50%" stop-color="#FFD700" stop-opacity="0.3"/>
        <stop offset="100%" stop-color="#F0F8FF"/>
    </linearGradient>
    <clipPath id="head-clip"><ellipse cx="200" cy="200" rx="110" ry="115"/></clipPath>
</defs>
<rect width="400" height="400" fill="#0D1B2A"/>
<circle cx="23" cy="157" r="1" fill="white" opacity="0.4"/>
<circle cx="46" cy="314" r="2" fill="white" opacity="0.5"/>
<circle cx="69" cy="71" r="1" fill="white" opacity="0.6000000000000001"/>
<circle cx="92" cy="228" r="2" fill="white" opacity="0.7000000000000001"/>
<circle cx="115" cy="385" r="1" fill="white" opacity="0.8"/>
<circle cx="138" cy="142" r="2" fill="white" opacity="0.4"/>
<circle cx="161" cy="299" r="1" fill="white" opacity="0.5"/>
<circle cx="184" cy="56" r="2" fill="white" opacity="0.6000000000000001"/>
<circle cx="207" cy="213" r="1" fill="white" opacity="0.7000000000000001"/>
<circle cx="230" cy="370" r="2" fill="white" opacity="0.8"/>
<circle cx="253" cy="127" r="1" fill="white" opacity="0.4"/>
<circle cx="276" cy="284" r="2" fill="white" opacity="0.5"/>
<circle cx="299" cy="41" r="1" fill="white" opacity="0.6000000000000001"/>
<circle cx="322" cy="198" r="2" fill="white" opacity="0.7000000000000001"/>
<circle cx="345" cy="355" r="1" fill="white" opacity="0.8"/>
<circle cx="368" cy="112" r="2" fill="white" opacity="0.4"/>
<circle cx="391" cy="269" r="1" fill="white" opacity="0.5"/>
<circle cx="14" cy="26" r="2" fill="white" opacity="0.6000000000000001"/>
<circle cx="37" cy="183" r="1" fill="white" opacity="0.7000000000000001"/>
<circle cx="60" cy="340" r="2" fill="white" opacity="0.8"/>
<circle cx="83" cy="97" r="1" fill="white" opacity="0.4"/>
<circle cx="106" cy="254" r="2" fill="white" opacity="0.5"/>
<circle cx="129" cy="11" r="1" fill="white" opacity="0.6000000000000001"/>
<circle cx="152" cy="168" r="2" fill="white" opacity="0.7000000000000001"/>
<circle cx="175" cy="325" r="1" fill="white" opacity="0.8"/>
<circle cx="198" cy="82" r="2" fill="white" opacity="0.4"/>
<circle cx="221" cy="239" r="1" fill="white" opacity="0.5"/>
<circle cx="244" cy="396" r="2" fill="white" opacity="0.6000000000000001"/>
<circle cx="267" cy="153" r="1" fill="white" opacity="0.7000000000000001"/>
<circle cx="290" cy="310" r="2" fill="white" opacity="0.8"/>
<circle cx="313" cy="67" r="1" fill="white" opacity="0.4"/>
<circle cx="336" cy="224" r="2" fill="white" opacity="0.5"/>
<circle cx="359" cy="381" r="1" fill="white" opacity="0.6000000000000001"/>
<circle cx="382" cy="138" r="2" fill="white" opacity="0.7000000000000001"/>
<circle cx="5" cy="295" r="1" fill="white" opacity="0.8"/>
<circle cx="28" cy="52" r="2" fill="white" opacity="0.4"/>
<circle cx="51" cy="209" r="1" fill="white" opacity="0.5"/>
<circle cx="74" cy="366" r="2" fill="white" opacity="0.6000000000000001"/>
<circle cx="97" cy="123" r="1" fill="white" opacity="0.7000000000000001"/>
<circle cx="120" cy="280" r="2" fill="white" opacity="0.8"/>

<ellipse cx="115" cy="140" rx="45" ry="50" fill="#32CD32" filter="url(#shadow)"/>
<ellipse cx="115" cy="140" rx="30" ry="35" fill="#FFB6C1"/>
<ellipse cx="115" cy="145" rx="18" ry="22" fill="#FF9999"/>
<ellipse cx="285" cy="140" rx="45" ry="50" fill="#32CD32" filter="url(#shadow)"/>
<ellipse cx="285" cy="140" rx="30" ry="35" fill="#FFB6C1"/>
<ellipse cx="285" cy="145" rx="18" ry="22" fill="#FF9999"/>
<ellipse cx="200" cy="200" rx="110" ry="115" fill="#32CD32" filter="url(#shadow)"/>
<ellipse cx="180" cy="140" rx="50" ry="30" fill="#7CFC00" opacity="0.3"/>
<g clip-path="url(#head-clip)"><ellipse cx="200" cy="200" rx="110" ry="115" fill="url(#sky-gradient)" opacity="0.25"/></g>
<ellipse cx="200" cy="235" rx="70" ry="60" fill="#FFDAB9"/>
<ellipse cx="200" cy="250" rx="55" ry="40" fill="#DEB887" opacity="0.3"/>
<ellipse cx="162" cy="185" rx="22" ry="24" fill="#000" opacity="0.08"/>
<ellipse cx="238" cy="185" rx="22" ry="24" fill="#000" opacity="0.08"/>
<ellipse cx="162" cy="185" rx="18" ry="20" fill="white"/>
<circle cx="162" cy="185" r="12" fill="#3D2314"/>
<circle cx="162" cy="185" r="6" fill="#000"/>
<circle cx="166" cy="181" r="4" fill="white"/>
<ellipse cx="238" cy="185" rx="18" ry="20" fill="white"/>
<circle cx="238" cy="185" r="12" fill="#3D2314"/>
<circle cx="238" cy="185" r="6" fill="#000"/>
<circle cx="242" cy="181" r="4" fill="white"/>
<g>
            <ellipse cx="200" cy="230" rx="25" ry="18" fill="#8B4513"/>
            <ellipse cx="200" cy="230" rx="22" ry="15" fill="#A0522D"/>
            <ellipse cx="192" cy="230" rx="5" ry="7" fill="#5D2E0C"/>
            <ellipse cx="208" cy="230" rx="5" ry="7" fill="#5D2E0C"/>
        </g>
<line x1="182" y1="260" x2="218" y2="260" stroke="#5D2E0C" stroke-width="2"/>
<polygon points="200,10 145,85 255,85" fill="#4B0082"/><ellipse cx="200" cy="85" rx="65" ry="12" fill="#4B0082"/><text x="200" y="55" font-size="20" fill="#FFD700" text-anchor="middle">★</text>

<g transform="translate(325, 15)">
            <rect width="65" height="22" rx="4" fill="#A0A0A0" opacity="0.9"/>
            <text x="32" y="15" font-size="8" fill="#FFF" text-anchor="middle" font-family="sans-serif" font-weight="bold">COMMON</text>
        </g>
        <g transform="translate(10, 15)">
            <rect width="45" height="22" rx="4" fill="#333" opacity="0.8"/>
            <text x="22" y="15" font-size="9" fill="#FFF" text-anchor="middle" font-family="sans-serif">Gen 2</text>
        </g>
</svg>